<svg xmlns="http://www.w3.org/2000/svg" viewBox="0 0 500 500"><g id="freepik--background-complete--inject-163"><path d="M107.16,442c18-12.57,22.08-35.91,21.37-56.89-.12-3.51.27-7.2-1.4-10.27s-5.55-5.17-8.69-3.7c-2.6,1.23-3.73,4.25-5.19,6.75a20.46,20.46,0,0,1-8.21,7.85c-2.23,1.16-5,1.86-7.19.65-3-1.67-3.38-5.84-3.36-9.32l.12-19.48c0-3.48,0-7-1-10.34s-3.47-6.38-6.79-7.31-7.41,1-8.11,4.39a33,33,0,0,0-.1,4.34c-.09,1.45-.77,3-2.14,3.45s-2.78-.58-3.83-1.6c-3.59-3.52-6-8.05-8.31-12.55s-4.49-9.12-7.76-13-7.77-6.87-12.76-7.16-10.3,2.8-11.56,7.7,1.6,9.89,4.72,13.86A77.67,77.67,0,0,0,53.1,354.87a6.39,6.39,0,0,1,2.71,2.91c.76,2.32-1.44,4.63-3.73,5.39-2.6.86-5.42.59-8.13.91s-5.66,1.52-6.69,4.09c-1.43,3.56,1.55,7.29,4.48,9.74a66.63,66.63,0,0,0,19.71,11.37c2.57.94,5.26,1.76,7.33,3.56s3.31,4.94,2.06,7.39-4.45,3.24-7.13,2.74-5.09-2-7.65-2.92c-4.78-1.8-11-1.47-14,2.66-2,2.72-2.2,6.51-1.18,9.75a25.58,25.58,0,0,0,5.28,8.61,67.07,67.07,0,0,0,28.6,20.1c11.11,3.85,21.4,4.89,32.43.85" style="fill:#f5f5f5"></path><path d="M107.44,457.58a153.64,153.64,0,0,0-5.69-28.71,313.15,313.15,0,0,0-12.39-33.6q-1.87-4.38-3.7-8.64c-1.22-2.84-2.44-5.65-3.79-8.32a152.94,152.94,0,0,0-8.66-14.93c-3-4.61-6-8.88-8.82-12.86s-5.56-7.61-8.19-10.83a123.38,123.38,0,0,0-13.48-14.26c-1.72-1.55-3.09-2.71-4-3.49l-1.07-.87a3,3,0,0,0-.38-.28,2.4,2.4,0,0,0,.34.33l1,.92c.91.81,2.26,2,3.95,3.58A130.1,130.1,0,0,1,55.85,340c2.6,3.23,5.29,6.88,8.11,10.86s5.79,8.26,8.76,12.87a158.81,158.81,0,0,1,8.59,14.88c1.34,2.67,2.54,5.45,3.76,8.29l3.7,8.64A319.27,319.27,0,0,1,101.18,429,156.11,156.11,0,0,1,107,457.62" style="fill:#e0e0e0"></path><path d="M81.69,378.28A7.33,7.33,0,0,0,82,376.8c.18-1,.4-2.37.64-4.1.5-3.47,1-8.28,1.56-13.59s1.14-10.1,1.68-13.55c.27-1.73.5-3.13.67-4.09a6.67,6.67,0,0,0,.19-1.51,7.5,7.5,0,0,0-.43,1.46c-.25.95-.55,2.34-.88,4.06-.66,3.44-1.31,8.24-1.86,13.56s-1,10-1.38,13.6c-.17,1.64-.32,3-.44,4.12A6.45,6.45,0,0,0,81.69,378.28Z" style="fill:#e0e0e0"></path><path d="M36.9,369.91a9.26,9.26,0,0,0,1.79.22c1.15.1,2.81.24,4.86.48,4.1.44,9.75,1.25,15.94,2.41s11.74,2.49,15.73,3.54c2,.52,3.61,1,4.72,1.29a9.38,9.38,0,0,0,1.75.43,10.24,10.24,0,0,0-1.68-.67c-1.09-.38-2.68-.91-4.67-1.49-4-1.17-9.53-2.55-15.74-3.73a158.55,158.55,0,0,0-16-2.24c-2.07-.18-3.74-.25-4.9-.28A11.14,11.14,0,0,0,36.9,369.91Z" style="fill:#e0e0e0"></path><path d="M101.19,428.05s.13-.18.31-.55l.77-1.62c.66-1.41,1.56-3.47,2.64-6,2.16-5.13,4.92-12.31,7.86-20.28s5.63-15.16,7.68-20.33c1-2.51,1.83-4.58,2.45-6.11.26-.67.48-1.22.65-1.67a2,2,0,0,0,.19-.6,2.4,2.4,0,0,0-.3.55l-.77,1.62c-.66,1.41-1.56,3.47-2.64,6-2.16,5.13-4.92,12.31-7.86,20.28s-5.63,15.16-7.68,20.33c-1,2.51-1.84,4.57-2.45,6.11-.26.67-.48,1.22-.66,1.67A2.51,2.51,0,0,0,101.19,428.05Z" style="fill:#e0e0e0"></path><path d="M41.68,408.87a2.89,2.89,0,0,0,.6.24l1.72.58,6.38,2.06c5.38,1.75,12.78,4.25,21,7s15.61,5.2,21,6.84c2.71.81,4.91,1.45,6.44,1.87l1.76.46a2.42,2.42,0,0,0,.62.12s-.19-.11-.59-.25l-1.72-.58-6.38-2.06c-5.38-1.75-12.78-4.24-21-7s-15.61-5.2-21-6.83c-2.71-.82-4.91-1.46-6.44-1.87L42.31,409A2.38,2.38,0,0,0,41.68,408.87Z" style="fill:#e0e0e0"></path><path d="M430.08,415.33c-3.07,2.58-7.1.37-8.58-2.11s-1.57-5.5-1.62-8.38c-.11-6.59-.16-13.47,2.82-19.34a10.75,10.75,0,0,1,3.77-4.45,5.62,5.62,0,0,1,5.61-.33c2,1.16,2.8,3.65,3.23,5.94a46.35,46.35,0,0,1-.74,20.36c-.82,3.09-2.06,6.23-4.49,8.31" style="fill:#f5f5f5"></path><path d="M417.44,429.15a19.91,19.91,0,0,0-11.54-4.67c-2.26-.22-4.69-.18-6.6,1s-3,4-1.64,5.87a5.86,5.86,0,0,0,3.46,1.94c3.16.81,6.81,1.2,8.82,3.78,1.15,1.47,1.62,3.52,3.19,4.52a4.21,4.21,0,0,0,5-.79,7.2,7.2,0,0,0,1.89-5A8.11,8.11,0,0,0,417.44,429.15Z" style="fill:#ebebeb"></path><path d="M435,421.52c-1.64-3.51-1-7.8,1.06-11.09a21.17,21.17,0,0,1,8.75-7.43,34.88,34.88,0,0,1,13-3.61,12.57,12.57,0,0,1,5.29.5,5.5,5.5,0,0,1,3.56,3.72c.58,2.57-1.3,5-3.13,6.91a88.16,88.16,0,0,1-10.42,9.27c-3,2.26-6.28,4.4-10,4.78s-7.19-.71-8.35-3.54" style="fill:#ebebeb"></path><path d="M418.22,457.66a60.13,60.13,0,0,0,.67-6,46.76,46.76,0,0,0-.26-7.37,26.21,26.21,0,0,0-1.82-7.09,13.5,13.5,0,0,0-3.41-4.84,12.91,12.91,0,0,0-3.39-2.15,7.5,7.5,0,0,1-1.38-.59,7.06,7.06,0,0,1,1.47.37,11.5,11.5,0,0,1,3.58,2,13.48,13.48,0,0,1,3.65,4.93,25.46,25.46,0,0,1,1.91,7.25,43.48,43.48,0,0,1,.22,7.48,49.67,49.67,0,0,1-.81,6" style="fill:#e0e0e0"></path><path d="M418.56,457.5c.45-1.65,1.1-4.06,1.81-7,1.45-6,3.14-14.29,4.58-23.55s2.29-17.71,2.65-23.84c.11-1.53.18-2.92.22-4.14s.1-2.26.1-3.12,0-1.46.06-2a3.15,3.15,0,0,1,.06-.69,3,3,0,0,1,.06.69c0,.52,0,1.17.06,2s0,1.91,0,3.13,0,2.62-.12,4.15A224.62,224.62,0,0,1,425.55,427c-1.43,9.28-3.2,17.61-4.76,23.56-.76,3-1.47,5.37-2,7" style="fill:#e0e0e0"></path><path d="M422.12,444.25a13.3,13.3,0,0,1,.56-2,55.07,55.07,0,0,1,2.06-5.24,76.57,76.57,0,0,1,3.88-7.41,73.19,73.19,0,0,1,5.81-8.44,51.4,51.4,0,0,1,13.73-12.46,25,25,0,0,1,2.85-1.5c.43-.21.82-.42,1.19-.57l1.05-.37a13.18,13.18,0,0,1,2-.62,61.17,61.17,0,0,0-6.83,3.43,54.15,54.15,0,0,0-13.48,12.48,78.65,78.65,0,0,0-5.8,8.34c-1.64,2.66-2.93,5.17-4,7.3s-1.75,3.91-2.24,5.14A12.47,12.47,0,0,1,422.12,444.25Z" style="fill:#e0e0e0"></path><path d="M420.52,206.57l.59-1.3.77,1.2a2.15,2.15,0,0,0,.89.77l1.29.59-1.19.77a2,2,0,0,0-.77.88l-.59,1.3-.77-1.2a2.21,2.21,0,0,0-.89-.77l-1.29-.59,1.19-.77A2.05,2.05,0,0,0,420.52,206.57Z" style="fill:#ebebeb"></path><path d="M398.48,82.28l.59-1.29.77,1.2a2.11,2.11,0,0,0,.89.76l1.29.59-1.19.77a2.14,2.14,0,0,0-.77.89l-.59,1.29-.77-1.19a2.14,2.14,0,0,0-.89-.77l-1.29-.59,1.19-.77A2.08,2.08,0,0,0,398.48,82.28Z" style="fill:#ebebeb"></path><path d="M347.27,55.21l.59-1.3.77,1.2a2.06,2.06,0,0,0,.89.76l1.29.59-1.19.78a2,2,0,0,0-.77.88l-.59,1.3-.77-1.2a2.21,2.21,0,0,0-.89-.77l-1.29-.59,1.19-.77A2.05,2.05,0,0,0,347.27,55.21Z" style="fill:#ebebeb"></path><path d="M84.41,107.42l.59-1.3.77,1.2a2.21,2.21,0,0,0,.89.77l1.29.59-1.19.77a2.05,2.05,0,0,0-.77.88l-.59,1.3-.77-1.2a2.15,2.15,0,0,0-.89-.77l-1.29-.59,1.19-.77A2,2,0,0,0,84.41,107.42Z" style="fill:#ebebeb"></path><path d="M150.61,39.89l.59-1.29.77,1.19a2.08,2.08,0,0,0,.89.77l1.29.59-1.19.77a2,2,0,0,0-.77.89l-.59,1.29-.77-1.2a2.11,2.11,0,0,0-.89-.76l-1.29-.59,1.19-.77A2.14,2.14,0,0,0,150.61,39.89Z" style="fill:#ebebeb"></path><path d="M446,127.64l1-2.12,1.26,2a3.43,3.43,0,0,0,1.46,1.26l2.12,1-2,1.26a3.46,3.46,0,0,0-1.26,1.45l-1,2.13-1.26-2a3.4,3.4,0,0,0-1.45-1.26l-2.12-1,2-1.26A3.51,3.51,0,0,0,446,127.64Z" style="fill:#e0e0e0"></path><path d="M55.14,178.84l1-2.12,1.26,2a3.43,3.43,0,0,0,1.46,1.26l2.12,1-2,1.26a3.4,3.4,0,0,0-1.26,1.45l-1,2.12-1.26-2a3.44,3.44,0,0,0-1.45-1.25l-2.12-1,2-1.27A3.35,3.35,0,0,0,55.14,178.84Z" style="fill:#e0e0e0"></path><path d="M442.81,264.74l1-2.12,1.27,2a3.4,3.4,0,0,0,1.45,1.26l2.12,1-2,1.26a3.47,3.47,0,0,0-1.26,1.45l-1,2.12-1.27-2a3.39,3.39,0,0,0-1.45-1.25l-2.12-1,2-1.26A3.5,3.5,0,0,0,442.81,264.74Z" style="fill:#e0e0e0"></path><path d="M438.3,57l1-2.12,1.27,2A3.4,3.4,0,0,0,442,58.12l2.12,1-2,1.26a3.5,3.5,0,0,0-1.26,1.46l-1,2.12-1.27-2a3.35,3.35,0,0,0-1.45-1.26l-2.12-1,2-1.26A3.46,3.46,0,0,0,438.3,57Z" style="fill:#e0e0e0"></path><path d="M58,61.54l1-2.12,1.26,2a3.48,3.48,0,0,0,1.46,1.25l2.12,1-2,1.26a3.43,3.43,0,0,0-1.26,1.46l-1,2.12-1.26-2a3.46,3.46,0,0,0-1.45-1.26l-2.12-1,2-1.26A3.51,3.51,0,0,0,58,61.54Z" style="fill:#e0e0e0"></path></g><g id="freepik--Floor--inject-163"><path d="M444.1,457.55c0,.14-86.91.26-194.09.26s-194.11-.12-194.11-.26,86.89-.26,194.11-.26S444.1,457.41,444.1,457.55Z" style="fill:#263238"></path></g><g id="freepik--Character--inject-163"><path d="M299.74,404.76c14.47-2.31,33.76-1.09,44.35-11.23s12.63-30.33.22-38.13c-8.35-5.25-19.27-2.93-28.53.45-16.12,5.88-31.35,14.48-48.16,17.9s-36.51.36-47-13.23c-6.92-9-9.23-21.73-18.58-28.16-12.4-8.54-33-2.85-41.26-15.43-8.17-12.4,4.69-28.94,1.55-43.46-4.37-20.22-35.19-23.65-42.66-43-5-12.84,2.63-27,11-37.92s18.24-22.36,18.41-36.13c.15-12.46-7.84-23.63-9.42-36-2.71-21.24,13.66-40,30.57-53.13,16.64-12.91,36-23.88,57-24.67s43.65,11.25,49.36,31.51c2.8,9.91,1.4,20.5,2.8,30.7s7.11,21.22,17.21,23.24c12.45,2.5,22.52-9.49,30-19.78s19.23-21.4,31-16.7c13.33,5.3,13.8,26.36,26.79,32.44,5.09,2.38,11.17,1.87,16.27,4.24,11.21,5.19,12.25,21.08,8.1,32.72a64.09,64.09,0,0,1-33.07,36.23c-10.26,4.75-21.95,6.84-30.84,13.82-6.65,5.22-11.09,12.7-15.37,20-3.53,6-7.12,12.18-8.47,19s-.05,14.62,5,19.4c6.14,5.79,15.8,5.65,24,3.51s16-5.92,24.45-6.23c16.56-.62,30.33,11.92,42.07,23.61,6.13,6.1,12.35,12.33,16.42,20s5.76,17,2.4,25c-3.53,8.38-11.88,13.79-16.33,21.73-4.07,7.28-4.51,16-7.38,23.83-6,16.37-22.33,27.3-39.36,31s-58.59,6.88-72.52-7.1" style="fill:#BA68C8"></path><path d="M299.74,404.76c14.47-2.31,33.76-1.09,44.35-11.23s12.63-30.33.22-38.13c-8.35-5.25-19.27-2.93-28.53.45-16.12,5.88-31.35,14.48-48.16,17.9s-36.51.36-47-13.23c-6.92-9-9.23-21.73-18.58-28.16-12.4-8.54-33-2.85-41.26-15.43-8.17-12.4,4.69-28.94,1.55-43.46-4.37-20.22-35.19-23.65-42.66-43-5-12.84,2.63-27,11-37.92s18.24-22.36,18.41-36.13c.15-12.46-7.84-23.63-9.42-36-2.71-21.24,13.66-40,30.57-53.13,16.64-12.91,36-23.88,57-24.67s43.65,11.25,49.36,31.51c2.8,9.91,1.4,20.5,2.8,30.7s7.11,21.22,17.21,23.24c12.45,2.5,22.52-9.49,30-19.78s19.23-21.4,31-16.7c13.33,5.3,13.8,26.36,26.79,32.44,5.09,2.38,11.17,1.87,16.27,4.24,11.21,5.19,12.25,21.08,8.1,32.72a64.09,64.09,0,0,1-33.07,36.23c-10.26,4.75-21.95,6.84-30.84,13.82-6.65,5.22-11.09,12.7-15.37,20-3.53,6-7.12,12.18-8.47,19s-.05,14.62,5,19.4c6.14,5.79,15.8,5.65,24,3.51s16-5.92,24.45-6.23c16.56-.62,30.33,11.92,42.07,23.61,6.13,6.1,12.35,12.33,16.42,20s5.76,17,2.4,25c-3.53,8.38-11.88,13.79-16.33,21.73-4.07,7.28-4.51,16-7.38,23.83-6,16.37-22.33,27.3-39.36,31s-58.59,6.88-72.52-7.1" style="fill:#fff;opacity:0.9"></path><path d="M190.12,246.53c-4.34,28.75-.3,61.31,21.64,80.38S272.84,351,300.7,342.68C313.08,339,324.52,332.6,337,329.15s26.92-3.44,37,4.66c11.75,9.48,13.53,27.92,6.48,41.27s-21.07,21.9-35.67,25.75-29.91,3.63-45,3.37C321,411.8,345,413,366,404.85s38.55-26.35,43.32-48.39S404.57,309.3,385,298c-11.86-6.84-21.12-12.71-37.18-14.85-13.57-1.81-26.46-.48-40.15-.36-17.45.15-29.8.71-42.29-18.2l-9-19.74Z" style="fill:#BA68C8"></path><g style="opacity:0.30000000000000004"><path d="M190.12,246.53c-4.34,28.75-.3,61.31,21.64,80.38S272.84,351,300.7,342.68C313.08,339,324.52,332.6,337,329.15s26.92-3.44,37,4.66c11.75,9.48,13.53,27.92,6.48,41.27s-21.07,21.9-35.67,25.75-29.91,3.63-45,3.37C321,411.8,345,413,366,404.85s38.55-26.35,43.32-48.39S404.57,309.3,385,298c-11.86-6.84-21.12-12.71-37.18-14.85-13.57-1.81-26.46-.48-40.15-.36-17.45.15-29.8.71-42.29-18.2l-9-19.74Z"></path></g><path d="M357.48,322a23.45,23.45,0,0,1-3.24,0c-2,0-4.75,0-7.78.13s-5.78.48-7.76.74a28.23,28.23,0,0,1-3.21.38,15.53,15.53,0,0,1,3.16-.74,65.84,65.84,0,0,1,15.61-.87A16.78,16.78,0,0,1,357.48,322Z" style="fill:#fff"></path><path d="M378.9,330.8a9.56,9.56,0,0,0-2-2.56,9.78,9.78,0,0,0-2.94-1.35c0-.06.38-.15,1-.06a4.94,4.94,0,0,1,3.74,3C379,330.39,379,330.79,378.9,330.8Z" style="fill:#fff"></path><polygon points="202.43 142.35 202.43 142.35 202.43 142.35 202.43 142.35" style="fill:#BA68C8"></polygon><path d="M174.88,157.1l-30.63,42.68a14.73,14.73,0,0,0,2.4,19.79l29.62,25.31,9.19-12.35-18.9-25.38,18.9-20.05Z" style="fill:#b78876"></path><polygon points="166.11 236.62 178.82 223.62 185.46 232.53 176.27 244.88 166.11 236.62" style="fill:#BA68C8"></polygon><path d="M229,143.39h0c1,.12,2.35.25,4,.45l.32,0a25,25,0,0,1,21.78,26.49L253.81,191s-1.42,35.53-1.61,35.39h0l5.34,24.41-68.16,2.12,1.78-24.67-8.53-13.49.41-25.32L173,162c2.1-7,9.63-14.67,20.1-16.67,3.32-.64,6.56-1.84,10.47-2h0a20.81,20.81,0,0,0,25.28.21Z" style="fill:#b78876"></path><polygon points="189.84 227.16 190.36 230.9 214.08 231.79 203.54 165.39 189.84 227.16" style="fill:#aa6550"></polygon><path d="M202.43,143l8.14,85.08-28-1.21V190.74s11.16-24-7.73-33c0,0,2.76-8.52,9.31-10.17Z" style="fill:#BA68C8"></path><path d="M231.44,160.8c-.09-.64,5.7,66.35,5.7,66.35a2,2,0,0,0,.75,1.51,2,2,0,0,0,1.11.16l12.65-.63.33-4.93a6.63,6.63,0,0,1-4.31-2.81,19.43,19.43,0,0,1-2.32-4.73c-5.86-15.26-11.81-31-11.53-47.35" style="fill:#aa6550"></path><path d="M229,143.39l11.25,80.86h19.55L249,152.14S243.61,142.72,229,143.39Z" style="fill:#BA68C8"></path><polygon points="189.29 253.05 258.82 250.2 253.78 233 189.95 233 189.29 253.05" style="fill:#BA68C8"></polygon><path d="M185.46,232.53,196,228.31a2.75,2.75,0,0,1,2.24.6c2.27,1.9,7.76,6.65,9.63,9.46s-.82,4.46-1.79,3.42c-10.74-11.36-10.34-4.76-10.34-4.76s9.31,7.5,8.25,8.81-1.55,1.8-3.4.41c-2.09-1.56-7.67-5.52-7.67-5.52s6.69,5.3,7.48,7a1.76,1.76,0,0,1-2.2,2.36c-1.36-.46-9.78-6.91-9.78-6.91s-4,4.81-6.42,6-5.76-4.34-5.76-4.34Z" style="fill:#b78876"></path><path d="M185.78,232.51l.23-.11.68-.3,2.66-1.1,4.21-1.7c.84-.32,1.67-.71,2.67-1a1.75,1.75,0,0,1,1.61.3c.43.34.81.71,1.24,1.08l5.46,4.84c1,.89,2,1.74,3,2.74a4.94,4.94,0,0,1,1.2,1.86,2.83,2.83,0,0,1-.24,2.3,1.85,1.85,0,0,1-1,.81,1.65,1.65,0,0,1-1.27-.2,10.25,10.25,0,0,1-1.86-1.44c-1.17-1-2.22-2.23-3.39-3.28a9.12,9.12,0,0,0-2-1.31,7.44,7.44,0,0,0-1.11-.42,1.34,1.34,0,0,0-.53-.1,2.13,2.13,0,0,0-.54.1c-.34.1-.71.31-.79.56a1.13,1.13,0,0,0,.24.95,11,11,0,0,0,1.74,1.73A40.19,40.19,0,0,1,203,243a7.71,7.71,0,0,1,.94,1.32,2.13,2.13,0,0,1,.26,1.7,1.9,1.9,0,0,1-1.29,1.12,3.32,3.32,0,0,1-1.63,0h0l0,0L193,240.81l.29-.36q2.21,2,4.16,3.84c.65.62,1.28,1.23,1.88,1.84a6.07,6.07,0,0,1,1.55,2,1.41,1.41,0,0,1-.18,1.29,1.79,1.79,0,0,1-1,.67,3.13,3.13,0,0,1-2.21-.37,24.53,24.53,0,0,1-3.17-2.19,15.64,15.64,0,0,0-1.37-.88,8.11,8.11,0,0,1-1.17-.88c-.69-.59-1.26-1.09-1.74-1.48s-.87-.67-1.14-.85a3.22,3.22,0,0,1-.4-.27,1.64,1.64,0,0,1,.44.21,12.46,12.46,0,0,1,1.19.79c.5.38,1.09.87,1.78,1.44a8.59,8.59,0,0,0,1.16.83,13.85,13.85,0,0,1,1.41.87,25.73,25.73,0,0,0,3.15,2.11,2.79,2.79,0,0,0,2,.32,1.41,1.41,0,0,0,.84-.53,1,1,0,0,0,.12-1,5.89,5.89,0,0,0-1.47-1.87c-.6-.59-1.24-1.2-1.89-1.81q-2-1.84-4.17-3.81l.29-.35,8.25,6.19-.09,0a2.78,2.78,0,0,0,1.37,0,1.4,1.4,0,0,0,.95-.8c.26-.83-.49-1.75-1.11-2.51a40.76,40.76,0,0,0-4.88-4.12,11.5,11.5,0,0,1-1.84-1.85,1.62,1.62,0,0,1-.29-1.41,1.65,1.65,0,0,1,1.13-.88,2.55,2.55,0,0,1,.68-.12,1.88,1.88,0,0,1,.69.13,6.51,6.51,0,0,1,1.18.45,8.87,8.87,0,0,1,2.06,1.39c1.22,1.09,2.25,2.28,3.39,3.29a9.92,9.92,0,0,0,1.75,1.37,1.28,1.28,0,0,0,.89.19,1.43,1.43,0,0,0,.7-.61,2.37,2.37,0,0,0,.21-1.91,4.52,4.52,0,0,0-1.09-1.68c-1-1-2-1.85-3-2.74l-5.42-4.89c-.41-.36-.81-.76-1.2-1.07a1.39,1.39,0,0,0-1.32-.26c-.92.28-1.82.68-2.64,1l-4.25,1.62-2.69,1-.7.25A.8.8,0,0,1,185.78,232.51Z" style="fill:#aa6550"></path><path d="M176,242.21a18.2,18.2,0,0,1-3.26-2.79,18,18,0,0,1-2.9-3.16,17.24,17.24,0,0,1,3.26,2.79A17.49,17.49,0,0,1,176,242.21Z" style="fill:#fff"></path><path d="M328.08,155.34c5.06-7.58,9-14.06,11.32-22.88a4.9,4.9,0,0,1,.92-2.14,1.65,1.65,0,0,1,2.11-.4c.73.54.61,1.65.41,2.54-.64,2.88-1.63,6-2.27,8.9,1.14-2.55,3-7.3,4.13-9.84a5.11,5.11,0,0,1,1.21-1.9,1.8,1.8,0,0,1,2.09-.31c1,.63.72,2.09.36,3.18-.77,2.33-2.72,7.47-3.48,9.79,1.07-2.05,2.56-5.5,3.63-7.56.56-1.06,1.47-2.31,2.64-2a1.88,1.88,0,0,1,1.29,1.91,5.45,5.45,0,0,1-.75,2.36c-.76,1.53-.75,1.62-1.51,3.15l-1.91,3.79s1.86-1.61,3.16-.23c.64.68.18,1.83-.18,2.7a68.93,68.93,0,0,1-3.19,8.23c-2.21,4.24-5.31,5.9-5.38,5.64l-2.88,4.53Z" style="fill:#b78876"></path><path d="M348.55,143.84q-1.43,2.82-2.83,5.65a4.43,4.43,0,0,0-.54,1.47,1.6,1.6,0,0,0,.47,1.43,1.54,1.54,0,0,0,1.54.15,3.06,3.06,0,0,0,1.27-1c.41-.54,2.26-4.35,2.5-4.78" style="fill:#b78876"></path><path d="M351,146.75a13.76,13.76,0,0,1-1,2.45,20.74,20.74,0,0,1-1.36,2.59,3.23,3.23,0,0,1-1.49,1.06,1.89,1.89,0,0,1-1,0,1.42,1.42,0,0,1-.88-.64,2.29,2.29,0,0,1-.07-2c.23-.59.51-1.07.75-1.56.49-.92.93-1.77,1.34-2.55a13.37,13.37,0,0,1,1.36-2.29,13.65,13.65,0,0,1-1,2.46l-1.24,2.6c-.23.49-.51,1-.7,1.51a1.77,1.77,0,0,0,0,1.54,1.15,1.15,0,0,0,1.33.41,2.76,2.76,0,0,0,1.25-.87c.58-.83,1-1.76,1.41-2.46A12.5,12.5,0,0,1,351,146.75Z" style="fill:#aa6550"></path><path d="M329.74,155a3,3,0,0,0,3.5.06c1.09-.63,1.93-1.61,3-2.31,3.09-2.11,7.5-1.53,10.49-3.78.42-.31.84-.83.62-1.31s-.79-.5-1.28-.49l-12.41.09" style="fill:#b78876"></path><path d="M333.63,147.23a4.93,4.93,0,0,1,1.34-.15c.87-.05,2.12-.09,3.66-.14l5.43-.11,1.57,0a2.47,2.47,0,0,1,1.82.41,1,1,0,0,1,.18,1.16,2.19,2.19,0,0,1-.64.79,8.06,8.06,0,0,1-1.57.94c-2.26,1-4.55,1.15-6.46,1.73a9,9,0,0,0-2.57,1.12c-.73.47-1.34,1.06-2,1.54a4.38,4.38,0,0,1-3.51,1.18c-.91-.19-1.21-.7-1.18-.7a3.66,3.66,0,0,0,1.22.43,4.23,4.23,0,0,0,3.15-1.3c.58-.48,1.18-1.1,1.95-1.64a9.78,9.78,0,0,1,2.71-1.26c2-.63,4.27-.82,6.35-1.75a7,7,0,0,0,1.43-.84c.41-.31.61-.75.39-.92s-.77-.22-1.31-.21h-1.56l-5.43,0c-1.55,0-2.8-.05-3.67-.08A5.05,5.05,0,0,1,333.63,147.23Z" style="fill:#aa6550"></path><path d="M249,151.51l42.32,30.16,37-26.47,12.08,9s-31.08,41.85-47.26,46.45a18.47,18.47,0,0,1-7.69-.84c-3.94-1.35-31.64-16.91-31.64-16.91Z" style="fill:#b78876"></path><polygon points="328.28 155.2 340.36 164.23 334.93 171.25 320.45 160.79 328.28 155.2" style="fill:#BA68C8"></polygon><path d="M328.4,156a16.13,16.13,0,0,1-2.94,3c-.87.77-1.68,1.43-2.31,1.88a6.19,6.19,0,0,1-.77.48.83.83,0,0,1-.26.08c-.1,0-.11-.09-.08-.08s1.35-1.23,3.08-2.75A18.52,18.52,0,0,1,328.4,156Z" style="fill:#fff"></path><path d="M337.48,129.19a58.57,58.57,0,0,1-7.16-3.19,58.65,58.65,0,0,1-6.94-3.66,59.35,59.35,0,0,1,7.16,3.19A59.65,59.65,0,0,1,337.48,129.19Z" style="fill:#263238"></path><path d="M343.28,125.8c-.13.06-2.46-4.62-5.21-10.45s-4.87-10.62-4.74-10.68,2.46,4.62,5.21,10.45S343.41,125.74,343.28,125.8Z" style="fill:#263238"></path><path d="M353.15,107.21a66.68,66.68,0,0,1-2,8.16,68.43,68.43,0,0,1-2.54,8,67.3,67.3,0,0,1,2-8.15A69,69,0,0,1,353.15,107.21Z" style="fill:#263238"></path><path d="M360.73,122.49a36,36,0,0,1-3,2.63,39.16,39.16,0,0,1-3,2.7,10.12,10.12,0,0,1,2.61-3.09A9.9,9.9,0,0,1,360.73,122.49Z" style="fill:#263238"></path><path d="M199.44,111.31a10.22,10.22,0,0,1-9.58-3.41,17.41,17.41,0,0,1-4.05-10,28.26,28.26,0,0,1,7.39-21.34,35.89,35.89,0,0,1,19.55-10.69,33.55,33.55,0,0,1,17.2.69,24.41,24.41,0,0,1,13.54,10.77,27.28,27.28,0,0,1,3.28,14c-.07,4.36-1,8.84-3.52,12.34s-6.71,5.85-10.84,5.22" style="fill:#BA68C8"></path><path d="M203.87,154.15,229.45,153l-1.26-19.9s9.86-1.54,10-11.4-1.59-32.52-1.59-32.52h0a34.29,34.29,0,0,0-34.44,4.33l-1.47,1.13Z" style="fill:#b78876"></path><path d="M228.2,132.93a23,23,0,0,1-12.86-3.66s3,7.1,12.88,6.21Z" style="fill:#aa6550"></path><path d="M201.89,104.83c-.17-.08-6.78-2-6.56,4.74s6.94,5.13,6.94,4.94S201.89,104.83,201.89,104.83Z" style="fill:#b78876"></path><path d="M200.13,112s-.11.09-.31.18a1.15,1.15,0,0,1-.88,0,2.91,2.91,0,0,1-1.42-2.57,3.86,3.86,0,0,1,.27-1.69,1.37,1.37,0,0,1,.86-.93.6.6,0,0,1,.7.3c.1.19.06.32.09.33s.14-.11.08-.39a.69.69,0,0,0-.28-.41.88.88,0,0,0-.65-.16,1.69,1.69,0,0,0-1.2,1.09,4,4,0,0,0-.34,1.89,3,3,0,0,0,1.8,2.86,1.28,1.28,0,0,0,1.07-.21C200.13,112.18,200.16,112,200.13,112Z" style="fill:#aa6550"></path><path d="M233,104.44a1.4,1.4,0,0,1-1.35,1.42,1.35,1.35,0,0,1-1.46-1.27,1.42,1.42,0,0,1,1.36-1.42A1.34,1.34,0,0,1,233,104.44Z" style="fill:#263238"></path><path d="M234.72,103c-.18.18-1.24-.61-2.76-.6s-2.63.76-2.79.57.1-.41.58-.76a3.91,3.91,0,0,1,2.23-.69,3.66,3.66,0,0,1,2.2.71C234.65,102.62,234.8,103,234.72,103Z" style="fill:#263238"></path><path d="M218.16,104.61A1.42,1.42,0,0,1,216.8,106a1.35,1.35,0,0,1-1.45-1.27,1.41,1.41,0,0,1,1.36-1.43A1.35,1.35,0,0,1,218.16,104.61Z" style="fill:#263238"></path><path d="M219.82,103.31c-.18.19-1.25-.6-2.76-.6s-2.63.76-2.79.58.09-.42.58-.77a3.91,3.91,0,0,1,2.23-.69,3.8,3.8,0,0,1,2.2.71C219.74,102.9,219.9,103.23,219.82,103.31Z" style="fill:#263238"></path><path d="M225.32,114.56a9.78,9.78,0,0,1,2.46-.45c.39,0,.75-.12.82-.38a2,2,0,0,0-.26-1.15c-.36-.93-.74-1.92-1.14-2.94-1.59-4.2-2.74-7.65-2.57-7.71s1.59,3.28,3.18,7.48c.38,1,.75,2,1.1,3a2.24,2.24,0,0,1,.2,1.51,1,1,0,0,1-.64.57,2.36,2.36,0,0,1-.66.09A10.62,10.62,0,0,1,225.32,114.56Z" style="fill:#263238"></path><path d="M220.86,115.6c.24,0,.25,1.64,1.66,2.8s3.16,1,3.17,1.22-.39.32-1.13.34a4.14,4.14,0,0,1-2.65-.92,3.6,3.6,0,0,1-1.29-2.35C220.56,116,220.74,115.59,220.86,115.6Z" style="fill:#263238"></path><path d="M220.5,99.4c-.15.41-1.66.22-3.44.43s-3.22.7-3.46.33c-.1-.18.15-.56.73-1a5.73,5.73,0,0,1,2.56-.9,5.62,5.62,0,0,1,2.69.32C220.23,98.88,220.56,99.2,220.5,99.4Z" style="fill:#263238"></path><path d="M234.51,100c-.27.34-1.31,0-2.57,0s-2.32.23-2.56-.13c-.11-.18.06-.52.52-.85a3.72,3.72,0,0,1,4.13.13C234.48,99.46,234.62,99.82,234.51,100Z" style="fill:#263238"></path><path d="M201.13,104.69C210,99.88,217,92.9,224.36,86a62.3,62.3,0,0,0,15.31,12.55c-.2-3.27-.46-6.71-2.24-9.46-1.92-3-5.38-4.68-8.88-5.23a34.11,34.11,0,0,0-10.56.47c-5.05.81-10.18,1.83-14.6,4.4a11.07,11.07,0,0,0-4.94,5c-1.41,3.48-.45,7.31,1,10.78" style="fill:#BA68C8"></path><path d="M225.65,81.26a17.75,17.75,0,0,0-.1-7.91,12,12,0,0,0-4.25-6.58,13.67,13.67,0,0,0-7.69-2.45,38.65,38.65,0,0,0-8.15.81,14,14,0,0,0,17.16,9.77c.77-.21,1.7-.46,2.29.08a2.05,2.05,0,0,1,.52,1.38,12.59,12.59,0,0,1-.6,5.1" style="fill:#455a64"></path><path d="M227.75,84.17a3.29,3.29,0,1,1-2.56-3.9A3.3,3.3,0,0,1,227.75,84.17Z" style="fill:#263238"></path><path d="M223.23,85.32c0,.06-.37,0-.76-.43a2.42,2.42,0,0,1-.61-2,2.45,2.45,0,0,1,1.22-1.72c.49-.26.84-.23.85-.17s-.28.18-.65.48a2.31,2.31,0,0,0-.52,3.19C223,85.06,223.27,85.25,223.23,85.32Z" style="fill:#fff"></path><path d="M205.46,65.22a3.19,3.19,0,0,1,.94.06c.61.08,1.48.2,2.54.43a45.67,45.67,0,0,1,8.13,2.5,40,40,0,0,1,4.24,2,11.64,11.64,0,0,1,3.05,2.36,7,7,0,0,1,1.36,2.22,2.06,2.06,0,0,1,.2.93,9,9,0,0,0-1.83-2.9c-1.45-1.58-4.19-2.88-7.22-4.14a57.52,57.52,0,0,0-8-2.62C206.77,65.54,205.45,65.3,205.46,65.22Z" style="fill:#263238"></path><path d="M189.18,107.08s-.08-.13-.2-.41a7.6,7.6,0,0,1-.37-1.25,9.74,9.74,0,0,1,.15-4.79,10.59,10.59,0,0,1,1.43-3,13.49,13.49,0,0,1,2.64-2.78,29.81,29.81,0,0,1,7.61-4.21,135.53,135.53,0,0,1,14.9-5.09c1.95-.53,3.53-.92,4.63-1.17l1.27-.26a1.28,1.28,0,0,1,.45-.06,13.07,13.07,0,0,1-1.67.52l-4.57,1.32c-3.85,1.16-9.14,2.9-14.81,5.22a30.48,30.48,0,0,0-7.51,4.11,13.19,13.19,0,0,0-2.59,2.65,10.59,10.59,0,0,0-1.43,2.88,10,10,0,0,0-.31,4.64C189,106.48,189.23,107.07,189.18,107.08Z" style="fill:#263238"></path><path d="M191.17,80.53s0-.11.16-.3a5.19,5.19,0,0,1,.63-.74,7.88,7.88,0,0,1,3-1.81,12.64,12.64,0,0,1,5.25-.49,61.59,61.59,0,0,1,6.32,1.14c4.44.94,8.45,1.81,11.35,2.47l3.43.81a6,6,0,0,1,1.24.37,6.94,6.94,0,0,1-1.28-.17l-3.46-.64c-2.92-.57-7-1.39-11.39-2.33-2.22-.46-4.33-1-6.26-1.17a12.54,12.54,0,0,0-5.09.36,8.4,8.4,0,0,0-3,1.61C191.48,80.18,191.2,80.56,191.17,80.53Z" style="fill:#263238"></path><path d="M243.49,77.34s-.25-.15-.65-.46a7.29,7.29,0,0,0-1.82-1,5.25,5.25,0,0,0-3-.11,14.79,14.79,0,0,0-3.55,1.39c-2.4,1.29-4.5,2.72-6.2,3.4a11.11,11.11,0,0,1-2.05.69,2,2,0,0,1-.79.09c0-.08,1.08-.31,2.69-1.11s3.65-2.21,6.11-3.53a14.28,14.28,0,0,1,3.68-1.4,5.43,5.43,0,0,1,3.25.24A6.1,6.1,0,0,1,243,76.73C243.34,77.08,243.51,77.31,243.49,77.34Z" style="fill:#263238"></path><path d="M245.58,99a19,19,0,0,0-.22-3.94,11.36,11.36,0,0,0-1.59-3.92A11.16,11.16,0,0,0,240,87.56a29.48,29.48,0,0,0-9-3.15c-2.41-.5-3.91-.76-3.9-.84a4.13,4.13,0,0,1,1.07.06c.69.08,1.68.21,2.9.42a26.9,26.9,0,0,1,9.18,3.06,11.46,11.46,0,0,1,3.87,3.73A11.25,11.25,0,0,1,245.72,95a10.4,10.4,0,0,1,.08,3A3.34,3.34,0,0,1,245.58,99Z" style="fill:#263238"></path><path d="M190.31,104.52a1.29,1.29,0,0,1-.22-.35,9.51,9.51,0,0,1-.53-1,19.71,19.71,0,0,1-1.3-4.1,27.36,27.36,0,0,1-.59-6.36A25.68,25.68,0,0,1,188.92,85a21.52,21.52,0,0,1,3.82-6.82,22.22,22.22,0,0,1,4.71-4.32,19.91,19.91,0,0,1,3.78-2,10.56,10.56,0,0,1,1.1-.41,1.64,1.64,0,0,1,.39-.1,35.78,35.78,0,0,0-5.06,2.86,23.15,23.15,0,0,0-4.55,4.32,21.87,21.87,0,0,0-3.7,6.69,26.54,26.54,0,0,0-1.27,7.56,29,29,0,0,0,.48,6.28,22.72,22.72,0,0,0,1.13,4.09A12.86,12.86,0,0,1,190.31,104.52Z" style="fill:#fff"></path><path d="M200.08,113.2s.47-.17,1,.27a1.74,1.74,0,0,1,.64,1.06,1.65,1.65,0,0,1-.52,1.45,1.53,1.53,0,0,1-2.46-.34c-.35-.65-.09-1.12,0-1.08s0,.43.35.88a1.3,1.3,0,0,0,.78.5,1.16,1.16,0,0,0,1-.34,1.21,1.21,0,0,0,.4-1,1.51,1.51,0,0,0-.4-.85C200.48,113.33,200.07,113.28,200.08,113.2Z" style="fill:#263238"></path></g><g id="freepik--magic-lamp--inject-163"><path d="M232.73,437.67a10.05,10.05,0,0,1-1.46,7.54c-3.4,4.65-11.07,4.33-14.49,9a3.11,3.11,0,0,0-.69,2.76c.42,1.22,1.87,1.67,3.12,2,2.5.57,5,1.15,7.54,1.55a78.89,78.89,0,0,0,22.91-.16,44.1,44.1,0,0,0,9.92-2.27,1.56,1.56,0,0,0,.88-.61,1.38,1.38,0,0,0-.09-1.17,8.26,8.26,0,0,0-4.87-4c-2-.78-4.19-1.17-6.17-2a13.93,13.93,0,0,1-8-13.86" style="fill:#455a64"></path><path d="M290.29,403.87c-3.05-3.05-11.76-2.44-15.27-1.68s-15.73,3.36-20.16,4.28-8.55-3.82-8.55-3.82a7.54,7.54,0,0,0,.92-2.29c.3-1.37-2.91-5-2.91-5a19,19,0,0,0,1.84-4.12c.61-2.14-4.58-2.75-4.58-2.75s-.39-1.85-1.38-6.88-3.6-5.75-6.35-4.42c-3.09,1.5-3.73,11.76-3.73,11.76s-4,1.06-4.28,1.68,1.68,3.66,2.45,4.73-1.68,2.29-3.06,3.82a1.67,1.67,0,0,0,0,2.59s-1.83,4.13-8.09,4.74-9.14-.28-18.63-7.33c-1.3-1-2.46-1.74-3.49-2.37a15.14,15.14,0,0,0-13.52-1.36c-8.69,3.54-6.82,12.89-6.82,12.89,2,11.3,13.44,9.78,15.89,9s7-5.5,7-5.5.76,2.75,2.75,2.45,1.83-2.9,1.83-2.9l5.35,7.94c6.72,9,18,17.87,29.17,18.48s29.78-16.5,30.54-17.41,9.47-8.86,17.41-11.15,12.37,2.44,12.83-.92S290.29,403.87,290.29,403.87Zm-94,5.72a3,3,0,1,0-3,2,8.49,8.49,0,0,1-14.83-3.83,8.3,8.3,0,0,1,5.35-9.08,10.67,10.67,0,0,1,7.06.45A16.31,16.31,0,0,1,200,408,3.9,3.9,0,0,0,196.32,409.59Z" style="fill:#455a64"></path><path d="M235.44,370.71a4.15,4.15,0,0,0-3.26,3,3.63,3.63,0,0,0,1.74,3.71,3.76,3.76,0,0,0,4.1-.34,3.83,3.83,0,0,0,1.24-3.94,3.34,3.34,0,0,0-3.82-2.47" style="fill:#455a64"></path><path d="M246.92,434.78s-.2.21-.62.5a13,13,0,0,1-1.88,1.09,17.39,17.39,0,0,1-3,1.11,18.14,18.14,0,0,1-7.85.3,17.19,17.19,0,0,1-3.1-.87,11.73,11.73,0,0,1-2-.94,2.63,2.63,0,0,1-.66-.45c.05-.08,1,.47,2.74,1a19.51,19.51,0,0,0,13.71-.53C245.93,435.33,246.86,434.7,246.92,434.78Z" style="fill:#263238"></path><path d="M259.9,456a10,10,0,0,1-1.61.61c-.53.18-1.17.39-1.94.6s-1.62.47-2.59.68a62.83,62.83,0,0,1-6.87,1.25,73.18,73.18,0,0,1-8.55.5,71.68,71.68,0,0,1-8.53-.63,63.18,63.18,0,0,1-6.86-1.35c-1-.22-1.82-.5-2.58-.72s-1.4-.43-1.92-.63a12,12,0,0,1-1.61-.62,9.91,9.91,0,0,1,1.67.43c.53.16,1.18.35,1.94.54s1.62.45,2.59.65c1.93.45,4.24.87,6.83,1.22a75.7,75.7,0,0,0,8.48.58,74.78,74.78,0,0,0,8.48-.45c2.59-.31,4.92-.7,6.85-1.13,1-.18,1.83-.42,2.6-.6s1.42-.36,2-.52A12.6,12.6,0,0,1,259.9,456Z" style="fill:#263238"></path><path d="M234.19,437.25a15.18,15.18,0,0,1-1.06,9.64c-.15-.05.52-2.13.8-4.79S234,437.26,234.19,437.25Z" style="fill:#263238"></path><path d="M238.4,447a18.59,18.59,0,0,1-1-9.19c.15,0,.16,2.08.44,4.6S238.55,447,238.4,447Z" style="fill:#263238"></path><path d="M241.78,447.1a11.7,11.7,0,0,1-1.75-4.68,11.53,11.53,0,0,1-.12-5c.15,0,.1,2.23.63,4.89S241.92,447,241.78,447.1Z" style="fill:#263238"></path><path d="M242.85,389a48.26,48.26,0,0,0-6.86-.68,48.14,48.14,0,0,0-6.84.83,6.28,6.28,0,0,1,1.93-.71,20.27,20.27,0,0,1,4.91-.64,20.57,20.57,0,0,1,4.92.53A6,6,0,0,1,242.85,389Z" style="fill:#263238"></path><path d="M244.26,395a10.62,10.62,0,0,1-2.32.45c-1.45.2-3.46.41-5.69.52s-4.25.11-5.71.05a9.55,9.55,0,0,1-2.36-.22,12.22,12.22,0,0,1,2.36-.15c1.46,0,3.47-.09,5.69-.2s4.22-.26,5.67-.36A10.91,10.91,0,0,1,244.26,395Z" style="fill:#263238"></path><path d="M238.59,377a3.84,3.84,0,0,1-4.9.56,23,23,0,0,0,2.49.09A22.14,22.14,0,0,0,238.59,377Z" style="fill:#263238"></path><path d="M247.09,401.88a2.48,2.48,0,0,1-.69.58,11.87,11.87,0,0,1-2.19,1.18,17.76,17.76,0,0,1-8.06,1.14,35.32,35.32,0,0,1-8-1.68,18.23,18.23,0,0,1-3.16-1.16,25.26,25.26,0,0,1,3.27.81,43.06,43.06,0,0,0,7.9,1.51,19.2,19.2,0,0,0,7.9-1A31.92,31.92,0,0,0,247.09,401.88Z" style="fill:#263238"></path><path d="M229.45,403.71a8.13,8.13,0,0,1-1.71,2,17.49,17.49,0,0,1-11.47,4.55,7.84,7.84,0,0,1-2.58-.25c0-.09,1,0,2.57-.11a20.66,20.66,0,0,0,6-1.36,20.44,20.44,0,0,0,5.27-3.1C228.72,404.39,229.38,403.65,229.45,403.71Z" style="fill:#263238"></path><path d="M232.28,404.92a6.09,6.09,0,0,1-.66,1.94,22.29,22.29,0,0,1-2.55,4.26,21.85,21.85,0,0,1-3.44,3.59,6.22,6.22,0,0,1-1.7,1.16,56.2,56.2,0,0,0,4.72-5.06A57.92,57.92,0,0,0,232.28,404.92Z" style="fill:#263238"></path><path d="M235.54,418.18c-.15,0,.63-2.94,1.07-6.61s.41-6.67.57-6.67a7.25,7.25,0,0,1,.2,2,33.32,33.32,0,0,1-.25,4.77,34.73,34.73,0,0,1-.91,4.68A6.18,6.18,0,0,1,235.54,418.18Z" style="fill:#263238"></path><path d="M246.31,416.83a42.5,42.5,0,0,1-4.85-12.45c.15-.05,1.08,2.8,2.42,6.22S246.45,416.76,246.31,416.83Z" style="fill:#263238"></path><path d="M254,410.09a4,4,0,0,1-1.91.17,8.76,8.76,0,0,1-7.34-5.12,4,4,0,0,1-.5-1.85c.08,0,.28.68.83,1.69a9.49,9.49,0,0,0,7.05,4.92C253.25,410.07,254,410,254,410.09Z" style="fill:#263238"></path><path d="M291.19,405.54s-.08,0-.24,0l-.67-.19a19.39,19.39,0,0,0-2.66-.49,22.11,22.11,0,0,0-9.71,1.45c-4,1.37-8.19,4.11-12.74,7.3-2.3,1.57-4.71,3.24-7.37,4.72a39.36,39.36,0,0,1-8.72,3.55,40.07,40.07,0,0,1-18.05.74,39.43,39.43,0,0,1-21.4-11.86c-.79-.87-1.39-1.57-1.76-2.07l-.43-.56-.13-.2s.07.05.18.17.28.31.46.53c.4.47,1,1.14,1.83,2a41.54,41.54,0,0,0,7.72,6.22,39.67,39.67,0,0,0,13.62,5.31,40.08,40.08,0,0,0,17.82-.77,39.53,39.53,0,0,0,8.61-3.5c2.64-1.45,5.05-3.1,7.34-4.67s4.5-3.06,6.64-4.31a36,36,0,0,1,6.26-2.94,21.71,21.71,0,0,1,9.86-1.3A12.66,12.66,0,0,1,291.19,405.54Z" style="fill:#263238"></path><path d="M228.74,397.4c.09.13-.66.72-1.34,1.66s-1.05,1.81-1.19,1.77,0-1.07.77-2.08S228.68,397.28,228.74,397.4Z" style="fill:#fff"></path><path d="M229.86,394.19c-.05.12-1.07-.22-2-1.16s-1.19-2-1.06-2,.61.81,1.44,1.67S229.93,394.05,229.86,394.19Z" style="fill:#fff"></path><path d="M231.6,387.74a13.28,13.28,0,0,1,1.29-8.37c.15.06-.46,1.86-.81,4.16S231.75,387.73,231.6,387.74Z" style="fill:#fff"></path><path d="M234.26,376.15c0,.05-.36-.06-.73-.46a2.59,2.59,0,0,1,.39-3.78c.44-.32.78-.35.8-.29s-.23.23-.55.57a2.86,2.86,0,0,0-.75,1.58,2.81,2.81,0,0,0,.41,1.7C234.07,375.87,234.3,376.08,234.26,376.15Z" style="fill:#fff"></path><path d="M225.55,403.6a2.42,2.42,0,0,1-.5.62,12.71,12.71,0,0,1-1.66,1.4,14.86,14.86,0,0,1-13.72,1.89,11.91,11.91,0,0,1-2-.9c-.44-.26-.67-.43-.65-.46s1,.48,2.74,1a16.18,16.18,0,0,0,6.91.59,16.47,16.47,0,0,0,6.49-2.43C224.7,404.34,225.49,403.53,225.55,403.6Z" style="fill:#fff"></path><path d="M176.59,410.6a6,6,0,0,1-.94-2.39,10.69,10.69,0,0,1,4.26-11,5.91,5.91,0,0,1,2.3-1.14c0,.08-.87.47-2.08,1.43a11.4,11.4,0,0,0-3.53,4.78,11.54,11.54,0,0,0-.59,5.91C176.26,409.67,176.68,410.56,176.59,410.6Z" style="fill:#fff"></path><path d="M181,414.82c-.06.13-.92-.18-1.85-.77s-1.59-1.24-1.5-1.35.86.33,1.77.91S181.05,414.69,181,414.82Z" style="fill:#fff"></path><path d="M246.17,432.68s-.14.1-.42.25-.72.34-1.29.57a21.27,21.27,0,0,1-5,1.24,25.15,25.15,0,0,1-7.69-.27,31.8,31.8,0,0,1-8.87-3.16,40.55,40.55,0,0,1-13-10.94,35.45,35.45,0,0,1-2.88-4.29c-.32-.53-.53-.95-.67-1.24a2.66,2.66,0,0,1-.2-.45,17,17,0,0,1,1,1.58,43,43,0,0,0,16,14.88,32.25,32.25,0,0,0,8.71,3.15,25.54,25.54,0,0,0,7.55.37,22.91,22.91,0,0,0,5-1.06C245.54,432.92,246.15,432.64,246.17,432.68Z" style="fill:#fff"></path><path d="M232.11,445.45s0,.25-.21.64a6.19,6.19,0,0,1-1,1.5,14.11,14.11,0,0,1-5.06,3.17,28.22,28.22,0,0,0-5.29,2.55c-1.23.84-1.8,1.6-1.87,1.54a5,5,0,0,1,1.65-1.84,22.6,22.6,0,0,1,5.31-2.73,15.77,15.77,0,0,0,5-2.94A16.51,16.51,0,0,0,232.11,445.45Z" style="fill:#fff"></path></g><g id="freepik--Starts--inject-163"><path d="M142,272l.59-1.3.77,1.2a2.11,2.11,0,0,0,.89.76l1.29.59-1.19.78a2.05,2.05,0,0,0-.77.88l-.59,1.3-.77-1.2a2.05,2.05,0,0,0-.88-.77l-1.3-.59,1.2-.77A2,2,0,0,0,142,272Z" style="fill:#BA68C8"></path><path d="M303.77,249.09l.59-1.3.77,1.2a2.06,2.06,0,0,0,.89.76l1.29.59-1.2.78a2,2,0,0,0-.76.88l-.59,1.3-.77-1.2a2.14,2.14,0,0,0-.89-.77l-1.29-.59L303,250A2.05,2.05,0,0,0,303.77,249.09Z" style="fill:#BA68C8"></path><path d="M227.1,36l.59-1.29.77,1.19a2.05,2.05,0,0,0,.88.77l1.3.59-1.2.77a2.06,2.06,0,0,0-.76.89l-.59,1.29-.78-1.2a2,2,0,0,0-.88-.76l-1.3-.59,1.2-.77A2.14,2.14,0,0,0,227.1,36Z" style="fill:#BA68C8"></path><path d="M169.28,345.94l.59-1.3.77,1.2a2.21,2.21,0,0,0,.89.77l1.29.59-1.19.77a2.05,2.05,0,0,0-.77.88l-.59,1.3-.77-1.2a2.06,2.06,0,0,0-.89-.76l-1.29-.6,1.2-.77A2,2,0,0,0,169.28,345.94Z" style="fill:#BA68C8"></path><path d="M306.07,84l.21-.45.27.42a.74.74,0,0,0,.31.27l.45.2-.41.27a.8.8,0,0,0-.27.31l-.21.46-.27-.42a.68.68,0,0,0-.31-.27l-.45-.21.42-.27A.66.66,0,0,0,306.07,84Z" style="fill:#BA68C8"></path><path d="M136,234.78l.2-.45.27.42a.8.8,0,0,0,.31.27l.46.2-.42.27a.8.8,0,0,0-.27.31l-.21.46-.27-.42a.68.68,0,0,0-.31-.27l-.45-.21.42-.27A.68.68,0,0,0,136,234.78Z" style="fill:#BA68C8"></path><path d="M179.74,307l.21-.45.27.42a.74.74,0,0,0,.31.27l.45.2-.42.27a.77.77,0,0,0-.26.31l-.21.46-.27-.42a.74.74,0,0,0-.31-.27l-.45-.21.41-.27A.63.63,0,0,0,179.74,307Z" style="fill:#BA68C8"></path><path d="M282,230.93l.2-.46.27.42a.8.8,0,0,0,.31.27l.46.21-.42.27a.68.68,0,0,0-.27.31l-.21.45-.27-.42a.68.68,0,0,0-.31-.27l-.45-.2.42-.27A.8.8,0,0,0,282,230.93Z" style="fill:#BA68C8"></path><path d="M366.15,172.4l.21-.45.27.42a.68.68,0,0,0,.31.27l.45.2-.42.27a.77.77,0,0,0-.26.31l-.21.46-.27-.42a.74.74,0,0,0-.31-.27l-.45-.21.41-.27A.63.63,0,0,0,366.15,172.4Z" style="fill:#BA68C8"></path><path d="M162.54,112.62l.21-.45.27.42a.74.74,0,0,0,.31.27l.45.2-.42.27a.8.8,0,0,0-.27.31l-.2.45-.27-.41a.8.8,0,0,0-.31-.27l-.46-.21.42-.27A.68.68,0,0,0,162.54,112.62Z" style="fill:#BA68C8"></path><path d="M265.18,131.32l.59-1.29.77,1.19a2.14,2.14,0,0,0,.89.77l1.29.59-1.19.77a2,2,0,0,0-.77.89l-.59,1.29-.77-1.2a2,2,0,0,0-.89-.76l-1.29-.59,1.2-.77A2.11,2.11,0,0,0,265.18,131.32Z" style="fill:#BA68C8"></path><path d="M307.17,374.3l.59-1.3.77,1.2a2.05,2.05,0,0,0,.88.77l1.3.59-1.2.77a2.12,2.12,0,0,0-.77.88l-.59,1.3-.77-1.2a2,2,0,0,0-.88-.76l-1.3-.59,1.2-.78A2.12,2.12,0,0,0,307.17,374.3Z" style="fill:#BA68C8"></path><path d="M88.2,225.81l1-2.12,1.26,2a3.43,3.43,0,0,0,1.46,1.26l2.12,1-2,1.26a3.4,3.4,0,0,0-1.26,1.45l-1,2.12-1.26-2a3.38,3.38,0,0,0-1.45-1.25l-2.12-1,2-1.26A3.41,3.41,0,0,0,88.2,225.81Z" style="fill:#BA68C8"></path><path d="M360.69,226l1-2.12,1.27,2a3.33,3.33,0,0,0,1.45,1.25l2.12,1-2,1.27a3.35,3.35,0,0,0-1.26,1.45l-1,2.12-1.26-2a3.4,3.4,0,0,0-1.45-1.26l-2.12-1,2-1.26A3.38,3.38,0,0,0,360.69,226Z" style="fill:#BA68C8"></path><path d="M120.38,145.87l1-2.12,1.26,2a3.38,3.38,0,0,0,1.45,1.25l2.12,1-2,1.27a3.33,3.33,0,0,0-1.25,1.45l-1,2.12-1.26-2a3.43,3.43,0,0,0-1.46-1.26l-2.12-1,2-1.26A3.4,3.4,0,0,0,120.38,145.87Z" style="fill:#BA68C8"></path></g></svg>